<?xml version="1.0" standalone="no"?>
<!DOCTYPE svg PUBLIC "-//W3C//DTD SVG 20010904//EN"
 "http://www.w3.org/TR/2001/REC-SVG-20010904/DTD/svg10.dtd">
<svg version="1.0" xmlns="http://www.w3.org/2000/svg"
 width="700.000000pt" height="700.000000pt" viewBox="0 0 700.000000 700.000000"
 preserveAspectRatio="xMidYMid meet">
<metadata>
Created by potrace 1.11, written by Peter Selinger 2001-2013
</metadata>
<g transform="translate(0.000000,700.000000) scale(0.100000,-0.100000)"
fill="#000000" stroke="none">
<path d="M1543 6985 c-223 -68 -300 -344 -146 -520 80 -91 228 -131 341 -91
l44 16 348 -350 c192 -192 357 -364 367 -382 15 -28 19 -63 21 -220 2 -104 0
-188 -5 -189 -4 0 -73 -2 -153 -3 -145 -3 -221 -16 -246 -41 -49 -48 -33 -140
27 -165 18 -8 50 -10 91 -5 81 10 2473 9 2529 0 125 -21 221 -105 263 -229 16
-46 17 -155 17 -1289 0 -682 -3 -1264 -7 -1294 -8 -67 7 -107 50 -127 43 -20
82 -14 116 19 35 34 43 77 45 258 2 76 5 140 8 143 4 4 597 7 857 4 43 0 46
-3 64 -42 11 -23 36 -58 57 -79 133 -133 346 -126 472 16 10 11 30 43 44 70
23 43 27 62 28 135 0 73 -4 93 -28 142 -51 105 -158 176 -273 182 -120 6 -255
-72 -301 -176 -9 -20 -23 -38 -32 -40 -13 -3 -874 -2 -891 1 -4 1 -5 190 -1
224 1 4 108 7 239 7 231 0 238 1 265 23 37 30 48 73 30 119 -23 58 -48 63
-307 63 -195 0 -226 2 -227 15 -1 17 -1 151 0 191 l1 26 833 1 c561 0 841 3
859 11 29 11 58 57 58 91 0 36 -28 77 -61 90 -25 11 -196 13 -848 13 -449 -1
-823 1 -831 3 -12 3 -15 23 -13 111 1 60 2 110 2 113 1 3 101 5 224 5 122 -1
234 3 248 7 15 5 37 20 49 33 42 45 21 134 -37 156 -15 5 -130 11 -256 12
l-230 2 0 105 c1 58 1 110 2 115 1 6 63 10 169 10 198 -1 246 6 330 46 54 27
110 78 423 390 198 197 363 359 367 359 4 0 28 -6 53 -14 147 -45 310 30 378
174 38 80 37 192 -1 272 -55 113 -172 183 -304 181 -153 -3 -295 -137 -306
-290 -3 -45 10 -131 23 -156 8 -14 -49 -76 -343 -368 -233 -232 -367 -358
-393 -370 -34 -16 -67 -19 -217 -19 -98 0 -178 3 -179 8 0 4 -2 75 -3 157 -3
161 -13 208 -63 311 -39 81 -149 190 -233 231 -100 47 -142 56 -305 59 -82 1
-153 3 -157 3 -5 1 -8 205 -8 454 l1 452 39 18 c148 68 218 267 149 418 -53
114 -153 180 -279 185 -158 6 -278 -83 -324 -240 -40 -135 35 -297 169 -364
l39 -20 1 -451 c0 -444 0 -451 -20 -452 -25 -1 -197 -1 -207 0 -5 1 -8 104 -8
230 0 126 -4 241 -10 255 -13 34 -52 58 -96 58 -28 0 -44 -8 -68 -31 l-30 -31
0 -240 c0 -234 -1 -240 -21 -241 -11 0 -63 -1 -115 -1 l-95 -1 -1 819 c0 450
-4 835 -7 854 -8 43 -34 67 -80 75 -55 11 -100 -19 -114 -76 -4 -19 -7 -394
-6 -834 1 -440 0 -809 -2 -820 -4 -19 -11 -20 -107 -18 -57 1 -108 2 -113 2
-7 1 -10 80 -10 227 0 259 -5 284 -63 307 -45 18 -88 8 -119 -28 -25 -29 -25
-19 -23 -342 0 -149 -1 -163 -17 -164 -99 -5 -213 -2 -214 6 0 6 -2 93 -3 195
-4 198 -11 239 -63 329 -14 24 -185 203 -379 398 -195 194 -354 357 -354 361
0 4 7 28 14 53 45 146 -31 311 -173 377 -63 29 -164 37 -228 17z m158 -209
c23 -10 49 -60 49 -96 0 -73 -65 -129 -135 -116 -77 15 -118 116 -72 180 35
49 89 60 158 32z m2745 -226 c66 -47 56 -157 -17 -193 -59 -28 -128 -6 -154
48 -21 45 -19 76 8 116 37 55 109 68 163 29z m2284 -1085 c68 -35 84 -125 32
-178 -78 -77 -194 -31 -196 78 -2 86 87 140 164 100z m-209 -2748 c121 -81 10
-260 -119 -193 -59 30 -75 125 -31 173 45 48 98 55 150 20z"/>
<path d="M1850 4913 c-79 -26 -92 -62 -95 -268 l-2 -160 -454 -2 -454 -3 -19
42 c-67 146 -267 216 -416 147 -66 -31 -133 -96 -162 -159 -30 -65 -31 -197
-2 -261 43 -92 136 -169 224 -184 76 -13 95 -13 150 2 90 23 162 80 207 165
l23 42 450 0 c293 1 450 -2 451 -9 0 -5 1 -56 2 -113 2 -83 -1 -103 -13 -107
-8 -2 -115 -4 -238 -4 -247 0 -261 -3 -287 -63 -16 -39 -5 -83 30 -117 l25
-25 237 0 c131 -1 240 -4 243 -7 4 -6 5 -154 1 -210 -1 -14 -79 -16 -836 -16
-692 0 -839 -2 -861 -13 -29 -16 -54 -58 -54 -90 0 -34 29 -80 58 -91 18 -8
298 -11 860 -11 613 0 832 -3 833 -12 1 -17 1 -189 0 -206 -1 -13 -31 -15
-223 -15 -123 1 -238 -3 -255 -9 -67 -19 -86 -118 -33 -171 19 -19 36 -20 267
-25 l247 -5 1 -113 c0 -61 -2 -112 -5 -113 -3 0 -90 -2 -195 -3 -205 -4 -246
-11 -332 -62 -28 -16 -194 -174 -400 -381 l-352 -353 -53 14 c-161 42 -318
-28 -387 -174 -38 -80 -37 -192 2 -272 89 -182 323 -238 483 -115 108 82 153
231 109 356 l-15 42 351 350 c259 259 361 356 394 370 37 17 68 19 215 20 94
0 174 -2 177 -5 3 -3 7 -72 8 -153 1 -81 7 -170 14 -196 45 -186 212 -354 398
-398 26 -6 116 -13 198 -14 l150 -2 3 -455 2 -454 -34 -12 c-48 -18 -119 -89
-152 -153 -39 -77 -40 -190 -3 -270 31 -66 85 -121 154 -157 68 -35 196 -38
267 -5 104 48 184 161 192 270 9 125 -68 260 -175 308 -21 10 -39 21 -40 24 0
3 -2 207 -2 454 -2 391 0 447 13 448 8 1 60 1 115 2 l100 1 2 -233 c3 -256 7
-275 61 -303 57 -28 124 4 140 66 5 17 8 129 7 248 0 141 3 219 10 221 5 1 57
2 115 2 l105 -1 1 -836 c1 -808 1 -837 20 -869 45 -76 158 -57 180 31 5 19 9
402 8 850 -1 448 2 817 6 820 7 4 177 5 215 1 7 -1 11 -77 10 -227 0 -259 5
-284 63 -307 42 -17 85 -8 117 23 19 19 20 35 23 265 2 135 6 245 10 246 52 6
215 2 220 -5 3 -6 6 -93 7 -195 2 -199 10 -239 61 -329 14 -23 185 -202 379
-397 195 -196 355 -359 355 -364 0 -5 -6 -26 -14 -48 -8 -22 -13 -68 -11 -105
11 -306 411 -419 582 -164 147 218 -12 506 -275 497 -29 -1 -70 -8 -92 -16
l-40 -14 -354 354 c-278 278 -358 364 -371 398 -13 34 -15 75 -13 216 l3 173
155 4 c85 1 162 4 170 6 46 10 80 33 94 63 20 41 20 49 0 90 -20 43 -59 59
-126 51 -29 -4 -612 -7 -1294 -7 -1129 0 -1246 2 -1290 17 -68 23 -129 67
-169 122 -70 97 -66 13 -66 1390 0 682 3 1263 7 1291 8 65 -8 105 -51 125 -35
17 -40 18 -65 9z m-1232 -452 c56 -56 46 -140 -20 -181 -41 -25 -74 -25 -115
0 -39 24 -54 50 -55 99 -1 67 45 110 119 111 33 0 48 -6 71 -29z m-228 -2731
c33 -24 54 -78 45 -119 -9 -41 -56 -82 -101 -88 -52 -6 -104 28 -122 81 -11
35 -10 44 8 81 11 23 30 47 43 53 37 18 96 14 127 -8z m2312 -1107 c36 -34 46
-85 25 -129 -39 -80 -140 -91 -199 -20 -21 26 -23 87 -4 125 32 61 126 74 178
24z m2739 -219 c36 -35 45 -80 26 -127 -39 -92 -170 -93 -209 -3 -48 115 93
216 183 130z"/>
<path d="M3083 4684 c-117 -30 -213 -107 -264 -210 -28 -56 -32 -76 -34 -151
l-1 -86 -55 -21 c-230 -89 -363 -329 -304 -549 15 -57 53 -137 81 -168 12 -13
10 -20 -12 -52 -69 -103 -98 -259 -70 -380 25 -108 69 -183 156 -268 68 -67
78 -81 83 -120 21 -164 146 -300 332 -361 60 -19 219 -16 285 6 69 23 132 58
181 103 l39 35 38 -34 c87 -78 186 -117 310 -123 232 -10 430 128 480 335 13
52 23 72 42 83 39 24 102 87 139 140 54 79 75 149 75 252 0 121 -28 195 -114
306 l-20 26 30 34 c68 79 111 203 105 308 -4 89 -11 115 -47 189 -46 92 -132
174 -237 224 l-86 41 0 82 c0 71 -4 89 -33 147 -102 207 -363 285 -582 173
-25 -13 -55 -33 -67 -44 -12 -12 -27 -21 -32 -21 -6 0 -33 17 -61 38 -91 69
-240 96 -357 66z m836 -218 c61 -33 104 -110 92 -169 -7 -33 -5 -32 -140 -67
-97 -25 -134 -118 -72 -181 34 -33 71 -37 139 -14 174 61 391 -34 433 -189 26
-97 2 -184 -72 -254 -24 -23 -46 -42 -50 -42 -21 0 -69 -55 -75 -85 -8 -47 12
-82 71 -123 88 -62 119 -107 133 -195 7 -41 5 -67 -6 -99 -14 -42 -61 -117
-73 -118 -4 0 -19 17 -35 38 -60 79 -134 135 -221 166 -77 27 -140 -7 -150
-81 -7 -51 20 -82 107 -126 149 -76 180 -227 70 -338 -79 -79 -199 -102 -312
-59 -68 25 -130 89 -145 148 -6 22 -10 195 -9 403 1 324 3 367 18 394 55 95
133 136 276 144 8 1 27 14 43 30 22 23 29 39 29 70 0 90 -80 121 -222 86 -39
-9 -86 -25 -104 -36 -18 -10 -35 -15 -38 -11 -3 5 -4 32 -4 62 2 85 -9 117
-46 140 -39 24 -67 25 -105 5 -50 -25 -54 -51 -55 -363 -1 -158 -4 -286 -8
-284 -4 2 -29 12 -54 24 -70 30 -123 27 -154 -11 -54 -63 -30 -137 55 -171 29
-12 68 -36 88 -55 63 -59 70 -84 73 -240 3 -169 -6 -211 -57 -269 -100 -114
-299 -117 -409 -7 -86 86 -88 191 -5 289 96 114 -54 240 -155 132 -17 -18 -34
-40 -39 -49 -8 -14 -12 -14 -30 3 -12 11 -35 47 -52 82 -59 120 -28 266 76
357 20 17 105 71 115 73 64 9 139 56 141 88 0 6 2 18 4 27 6 31 -24 79 -59 96
-33 15 -39 15 -98 -1 -35 -10 -84 -28 -110 -41 -53 -26 -57 -25 -84 40 -49
119 14 263 144 329 50 25 78 32 155 41 27 3 57 10 68 15 43 23 59 109 28 148
-59 73 -54 157 13 219 69 64 206 71 284 13 34 -25 64 -73 69 -109 10 -80 48
-121 113 -121 37 0 92 48 93 82 1 43 9 71 30 104 51 82 189 111 288 60z"/>
</g>
</svg>
